<svg width="17" height="9" viewBox="0 0 17 9" xmlns="http://www.w3.org/2000/svg"><title>Page 1</title><path d="M13.47 0c.971 0 1.802.367 2.493 1.102C16.654 1.836 17 2.719 17 3.75v1.5c0 1.031-.346 1.914-1.037 2.648C15.273 8.633 14.441 9 13.471 9H8.529c-1.5 0-2.573-.75-3.22-2.25C5.103 6.219 5 5.719 5 5.25v-1.5h2.118v1.5c0 .438.132.797.397 1.078.264.281.603.422 1.014.422h4.942c.411 0 .75-.14 1.014-.422.265-.281.397-.64.397-1.078v-1.5c0-.438-.132-.797-.397-1.078-.264-.281-.603-.422-1.014-.422h-.706a3.62 3.62 0 0 0-.486-1.219c-.235-.375-.455-.64-.661-.797L11.353 0h2.118zm-1.735 2.25c.177.469.265.969.265 1.5v1.5H9.882v-1.5c0-.438-.132-.797-.397-1.078-.264-.281-.603-.422-1.014-.422H3.529c-.411 0-.75.14-1.014.422-.265.281-.397.64-.397 1.078v1.5c0 .438.132.797.397 1.078.264.281.603.422 1.014.422h.706c.089.438.25.844.486 1.219.235.375.455.64.661.797L5.647 9H3.53c-.97 0-1.801-.367-2.492-1.102C.346 7.164 0 6.281 0 5.25v-1.5c0-1.031.346-1.914 1.037-2.648C1.727.367 2.559 0 3.529 0h4.942c.705 0 1.36.21 1.963.633.603.422 1.037.96 1.301 1.617z" fill="#FFF" fill-rule="evenodd"/></svg>